<?xml version="1.0" encoding="UTF-8" standalone="no"?>
<!DOCTYPE svg PUBLIC "-//W3C//DTD SVG 1.1//EN" "http://www.w3.org/Graphics/SVG/1.1/DTD/svg11.dtd">
<svg width="100%" height="100%" viewBox="0 0 330 64" version="1.1" xmlns="http://www.w3.org/2000/svg" xmlns:xlink="http://www.w3.org/1999/xlink" xml:space="preserve" style="fill-rule:evenodd;clip-rule:evenodd;stroke-linejoin:round;stroke-miterlimit:1.41421;">
    <g transform="matrix(1,0,0,1,-428.391,-213.833)">
        <g transform="matrix(1,0,0,1,660.201,259.555)">
            <path d="M44.033,-22.406C44.033,-15.912 42.009,-10.424 37.961,-5.943C33.912,-1.461 28.944,0.779 23.056,0.779C17.297,0.779 12.361,-1.494 8.248,-6.04C4.135,-10.586 2.078,-16.063 2.078,-22.471C2.078,-29.052 4.124,-34.551 8.216,-38.967C12.307,-43.384 17.384,-45.592 23.445,-45.592C29.29,-45.592 34.183,-43.373 38.123,-38.935C42.063,-34.497 44.033,-28.987 44.033,-22.406ZM32.603,-21.367C32.603,-29.983 31.585,-36.348 29.55,-40.461C28.208,-43.145 26.086,-44.488 23.185,-44.488C20.241,-44.488 17.892,-42.604 16.139,-38.837C14.385,-35.071 13.509,-30.026 13.509,-23.705C13.509,-14.526 15.067,-7.664 18.185,-3.117C19.484,-1.212 21.367,-0.26 23.835,-0.26C26.693,-0.26 28.706,-1.624 29.875,-4.351C31.693,-8.594 32.603,-14.266 32.603,-21.367Z" style="fill:white;fill-rule:nonzero;"/>
            <path d="M97.288,-0.455C97.288,-0.022 96.855,0.195 95.989,0.195L95.535,0.195C94.582,0.195 92.904,0.173 90.501,0.13C88.098,0.087 86.312,0.065 85.143,0.065C84.667,0.065 83.671,0.087 82.156,0.13C80.684,0.13 78.692,0.13 76.181,0.13L74.557,0.13C73.951,0.13 73.648,-0.065 73.648,-0.455C73.648,-0.844 73.951,-1.039 74.557,-1.039L76.765,-0.974C78.757,-0.931 79.969,-1.277 80.402,-2.013C80.532,-2.23 80.597,-3.529 80.597,-5.91L80.532,-41.11C79.147,-37.517 77.328,-31.802 75.077,-23.965L69.427,-4.092C68.734,-1.667 68.171,-0.455 67.738,-0.455C67.262,-0.455 66.829,-1.061 66.439,-2.273C66.309,-2.663 64.924,-6.819 62.283,-14.743C61.287,-17.73 58.581,-26.108 54.164,-39.876L54.164,-6.3C54.164,-4.351 54.186,-3.193 54.229,-2.825C54.273,-2.457 54.468,-2.143 54.814,-1.883C55.463,-1.321 56.567,-1.061 58.126,-1.104C59.685,-1.147 60.464,-0.909 60.464,-0.39C60.464,-0.087 60.139,0.065 59.49,0.065L53.71,-0.065C52.714,-0.108 51.567,-0.087 50.268,0C48.536,0.087 47.367,0.13 46.761,0.13C45.851,0.13 45.397,-0.065 45.397,-0.455C45.397,-0.801 45.765,-0.974 46.501,-0.974C48.233,-0.974 49.272,-0.996 49.618,-1.039C50.96,-1.212 51.74,-1.71 51.956,-2.533C52.086,-3.052 52.151,-4.135 52.151,-5.78L52.151,-36.759C52.151,-40.223 51.945,-42.247 51.534,-42.831C51.123,-43.416 49.575,-43.708 46.891,-43.708C46.198,-43.708 45.851,-43.903 45.851,-44.293C45.851,-44.726 46.219,-44.921 46.956,-44.877L48.709,-44.812L60.984,-44.877C61.114,-44.877 61.352,-44.856 61.698,-44.812C65.378,-32.819 68.496,-22.861 71.05,-14.937L79.818,-44.877L81.182,-44.877L89.755,-44.812C89.884,-44.812 90.252,-44.812 90.859,-44.812C91.508,-44.856 92.093,-44.877 92.612,-44.877L95.6,-44.877C96.466,-44.877 96.899,-44.682 96.899,-44.293C96.899,-43.86 96.639,-43.665 96.119,-43.708L94.625,-43.773C92.807,-43.86 91.584,-43.687 90.956,-43.254C90.328,-42.821 90.014,-41.976 90.014,-40.721C90.014,-40.374 90.036,-39.617 90.079,-38.448C90.123,-37.279 90.144,-31.845 90.144,-22.146L90.144,-4.027C90.144,-2.468 90.545,-1.57 91.346,-1.331C92.147,-1.093 93.337,-0.996 94.918,-1.039C96.498,-1.082 97.288,-0.888 97.288,-0.455Z" style="fill:white;fill-rule:nonzero;"/>
        </g>
        <g transform="matrix(5.41211,0,0,5.41211,-2334.94,-1479.8)">
            <path d="M518.803,317.181C518.803,318.093 518.595,318.881 518.179,319.545C517.747,320.241 517.119,320.749 516.295,321.069C515.735,321.285 514.899,321.393 513.787,321.393C513.771,321.393 513.683,321.389 513.523,321.381C513.363,321.373 513.131,321.369 512.827,321.369L512.395,321.369C512.379,321.369 512.119,321.373 511.615,321.381L510.859,321.393C510.739,321.393 510.679,321.361 510.679,321.297C510.679,321.217 510.791,321.181 511.015,321.189C511.359,321.197 511.567,321.137 511.639,321.009C511.671,320.953 511.687,320.709 511.687,320.277L511.687,314.169C511.687,313.817 511.663,313.601 511.615,313.521C511.535,313.377 511.331,313.309 511.003,313.317C510.827,313.325 510.739,313.285 510.739,313.197C510.739,313.125 510.795,313.089 510.907,313.089L511.123,313.089C511.603,313.089 512.067,313.093 512.515,313.101C513.155,313.109 513.651,313.113 514.003,313.113C515.459,313.113 516.575,313.413 517.351,314.013C518.319,314.765 518.803,315.821 518.803,317.181ZM516.727,317.181C516.727,315.861 516.531,314.895 516.139,314.283C515.747,313.671 515.131,313.365 514.291,313.365C513.987,313.365 513.787,313.397 513.691,313.461C513.563,313.541 513.499,313.729 513.499,314.025L513.499,320.169C513.499,320.697 513.531,320.989 513.595,321.045C513.691,321.133 513.903,321.177 514.231,321.177C515.895,321.177 516.727,319.845 516.727,317.181Z" style="fill:white;fill-rule:nonzero;"/>
            <path d="M527.395,321.261C527.395,321.325 527.365,321.363 527.305,321.375C527.245,321.387 527.091,321.393 526.843,321.393C526.779,321.393 526.599,321.389 526.303,321.381C525.711,321.365 525.303,321.357 525.079,321.357C524.815,321.357 524.583,321.361 524.383,321.369C523.983,321.385 523.711,321.393 523.567,321.393C523.351,321.393 523.243,321.353 523.243,321.273C523.243,321.193 523.471,321.149 523.927,321.141C524.039,321.141 524.123,321.133 524.179,321.117C524.307,321.101 524.371,321.053 524.371,320.973C524.371,320.933 524.323,320.765 524.227,320.469L523.975,319.689C523.927,319.513 523.823,319.189 523.663,318.717L523.447,318.717L522.511,318.705C522.175,318.697 521.819,318.701 521.443,318.717C521.371,318.877 521.235,319.237 521.035,319.797L520.771,320.577C520.731,320.697 520.711,320.793 520.711,320.865C520.711,321.001 520.799,321.089 520.975,321.129C521.015,321.137 521.211,321.153 521.563,321.177C521.675,321.185 521.731,321.221 521.731,321.285C521.731,321.357 521.659,321.393 521.515,321.393L519.535,321.381C519.487,321.389 519.435,321.393 519.379,321.393C519.267,321.393 519.211,321.353 519.211,321.273C519.211,321.225 519.335,321.193 519.583,321.177C519.903,321.161 520.107,321.101 520.195,320.997C520.283,320.893 520.427,320.557 520.627,319.989C520.779,319.589 520.999,318.997 521.287,318.213L522.739,314.217C522.811,314.041 522.911,313.765 523.039,313.389C523.127,313.117 523.195,312.981 523.243,312.981C523.291,312.981 523.379,313.165 523.507,313.533C523.667,314.005 524.371,315.869 525.619,319.125C525.779,319.541 525.939,319.965 526.099,320.397C526.235,320.765 526.371,320.989 526.507,321.069C526.611,321.133 526.859,321.161 527.251,321.153C527.347,321.153 527.395,321.189 527.395,321.261ZM523.579,318.453C523.571,318.429 523.543,318.353 523.495,318.225C523.175,317.297 522.943,316.645 522.799,316.269C522.759,316.165 522.703,316.013 522.631,315.813L522.559,315.597C522.415,315.941 522.239,316.417 522.031,317.025C521.799,317.705 521.631,318.181 521.527,318.453C521.599,318.453 521.687,318.449 521.791,318.441L522.727,318.441C522.911,318.441 523.195,318.445 523.579,318.453Z" style="fill:white;fill-rule:nonzero;"/>
            <path d="M535.063,320.913C535.063,321.361 534.771,321.585 534.187,321.585C533.451,321.585 532.863,321.353 532.423,320.889C532.079,320.529 531.883,320.145 531.835,319.737L531.715,318.753C531.635,318.129 531.489,317.693 531.277,317.445C531.065,317.197 530.723,317.077 530.251,317.085L530.251,319.809C530.251,320.441 530.255,320.781 530.263,320.829C530.263,320.965 530.319,321.059 530.431,321.111C530.543,321.163 530.755,321.189 531.067,321.189C531.259,321.189 531.355,321.225 531.355,321.297C531.355,321.361 531.307,321.393 531.211,321.393L530.047,321.381C530.047,321.381 529.983,321.381 529.855,321.381C529.711,321.389 529.575,321.393 529.447,321.393L528.583,321.393C528.503,321.393 528.411,321.389 528.307,321.381C528.219,321.381 528.163,321.381 528.139,321.381L527.587,321.393C527.475,321.393 527.419,321.361 527.419,321.297C527.419,321.225 527.583,321.181 527.911,321.165C528.183,321.149 528.343,321.085 528.391,320.973C528.415,320.917 528.427,320.749 528.427,320.469L528.427,314.289C528.427,313.873 528.419,313.627 528.403,313.551C528.387,313.475 528.335,313.417 528.247,313.377C528.135,313.329 527.955,313.305 527.707,313.305C527.531,313.305 527.443,313.269 527.443,313.197C527.443,313.141 527.479,313.107 527.551,313.095C527.623,313.083 527.815,313.077 528.127,313.077C528.127,313.077 528.199,313.077 528.343,313.077C528.487,313.085 528.627,313.089 528.763,313.089L529.159,313.089C529.167,313.089 529.251,313.085 529.411,313.077L530.539,313.077C531.659,313.077 532.423,313.165 532.831,313.341C533.151,313.477 533.407,313.685 533.599,313.965C533.791,314.245 533.887,314.553 533.887,314.889C533.887,315.657 533.487,316.225 532.687,316.593C532.335,316.753 531.815,316.873 531.127,316.953L531.115,317.025C531.987,317.081 532.619,317.311 533.011,317.715C533.403,318.119 533.639,318.773 533.719,319.677C533.783,320.397 533.883,320.847 534.019,321.027C534.155,321.207 534.295,321.297 534.439,321.297C534.559,321.297 534.619,321.265 534.619,321.201C534.619,321.169 534.573,321.125 534.481,321.069C534.389,321.013 534.343,320.933 534.343,320.829C534.343,320.613 534.463,320.505 534.703,320.505C534.943,320.505 535.063,320.641 535.063,320.913ZM532.027,314.853C532.027,313.821 531.619,313.305 530.803,313.305C530.539,313.305 530.375,313.393 530.311,313.569C530.271,313.681 530.251,314.117 530.251,314.877L530.251,316.869C530.875,316.877 531.327,316.721 531.607,316.401C531.887,316.081 532.027,315.565 532.027,314.853Z" style="fill:white;fill-rule:nonzero;"/>
            <path d="M543.583,321.273C543.583,321.353 543.435,321.393 543.139,321.393C542.883,321.393 542.511,321.389 542.023,321.381C541.663,321.373 541.415,321.373 541.279,321.381L540.607,321.405L540.067,321.417C539.891,321.417 539.803,321.381 539.803,321.309C539.803,321.253 539.825,321.221 539.869,321.213C539.913,321.205 540.055,321.197 540.295,321.189C540.423,321.189 540.487,321.149 540.487,321.069C540.487,321.037 540.267,320.713 539.827,320.097L538.063,317.625C537.959,317.521 537.883,317.437 537.835,317.373L537.835,320.421C537.835,320.781 537.865,320.995 537.925,321.063C537.985,321.131 538.187,321.173 538.531,321.189C538.731,321.197 538.831,321.237 538.831,321.309C538.831,321.381 538.759,321.417 538.615,321.417L537.859,321.405C537.355,321.397 536.839,321.393 536.311,321.393C536.231,321.393 536.109,321.397 535.945,321.405C535.781,321.413 535.607,321.417 535.423,321.417L535.267,321.417C535.139,321.417 535.075,321.381 535.075,321.309C535.075,321.237 535.209,321.197 535.477,321.189C535.745,321.181 535.909,321.145 535.969,321.081C536.029,321.017 536.059,320.841 536.059,320.553L536.059,313.629C536.059,313.517 536.031,313.441 535.975,313.401C535.895,313.353 535.723,313.329 535.459,313.329C535.227,313.329 535.111,313.293 535.111,313.221C535.111,313.157 535.167,313.125 535.279,313.125L536.731,313.149C536.747,313.149 536.795,313.149 536.875,313.149C536.963,313.141 537.043,313.137 537.115,313.137L537.859,313.125L538.351,313.125C538.439,313.117 538.535,313.113 538.639,313.113C538.735,313.113 538.783,313.149 538.783,313.221C538.783,313.277 538.687,313.309 538.495,313.317C538.175,313.333 537.985,313.363 537.925,313.407C537.865,313.451 537.835,313.593 537.835,313.833L537.835,317.001C538.051,316.825 538.779,316.037 540.019,314.637C540.571,314.013 540.847,313.617 540.847,313.449C540.847,313.393 540.811,313.359 540.739,313.347C540.667,313.335 540.463,313.329 540.127,313.329C540.015,313.329 539.959,313.293 539.959,313.221C539.959,313.141 540.055,313.105 540.247,313.113L540.775,313.125C540.791,313.125 540.827,313.125 540.883,313.125C540.955,313.117 541.019,313.113 541.075,313.113L542.311,313.113C542.423,313.113 542.479,313.149 542.479,313.221C542.479,313.301 542.415,313.341 542.287,313.341C541.991,313.341 541.789,313.361 541.681,313.401C541.573,313.441 541.443,313.537 541.291,313.689C540.547,314.465 539.771,315.325 538.963,316.269C539.099,316.461 539.483,316.961 540.115,317.769C540.555,318.321 541.183,319.125 541.999,320.181C542.359,320.661 542.595,320.947 542.707,321.039C542.819,321.131 542.983,321.177 543.199,321.177C543.455,321.177 543.583,321.209 543.583,321.273Z" style="fill:white;fill-rule:nonzero;"/>
            <path d="M550.987,320.913C550.987,321.361 550.695,321.585 550.111,321.585C549.375,321.585 548.787,321.353 548.347,320.889C548.003,320.529 547.807,320.145 547.759,319.737L547.639,318.753C547.559,318.129 547.413,317.693 547.201,317.445C546.989,317.197 546.647,317.077 546.175,317.085L546.175,319.809C546.175,320.441 546.179,320.781 546.187,320.829C546.187,320.965 546.243,321.059 546.355,321.111C546.467,321.163 546.679,321.189 546.991,321.189C547.183,321.189 547.279,321.225 547.279,321.297C547.279,321.361 547.231,321.393 547.135,321.393L545.971,321.381C545.971,321.381 545.907,321.381 545.779,321.381C545.635,321.389 545.499,321.393 545.371,321.393L544.507,321.393C544.427,321.393 544.335,321.389 544.231,321.381C544.143,321.381 544.087,321.381 544.063,321.381L543.511,321.393C543.399,321.393 543.343,321.361 543.343,321.297C543.343,321.225 543.507,321.181 543.835,321.165C544.107,321.149 544.267,321.085 544.315,320.973C544.339,320.917 544.351,320.749 544.351,320.469L544.351,314.289C544.351,313.873 544.343,313.627 544.327,313.551C544.311,313.475 544.259,313.417 544.171,313.377C544.059,313.329 543.879,313.305 543.631,313.305C543.455,313.305 543.367,313.269 543.367,313.197C543.367,313.141 543.403,313.107 543.475,313.095C543.547,313.083 543.739,313.077 544.051,313.077C544.051,313.077 544.123,313.077 544.267,313.077C544.411,313.085 544.551,313.089 544.687,313.089L545.083,313.089C545.091,313.089 545.175,313.085 545.335,313.077L546.463,313.077C547.583,313.077 548.347,313.165 548.755,313.341C549.075,313.477 549.331,313.685 549.523,313.965C549.715,314.245 549.811,314.553 549.811,314.889C549.811,315.657 549.411,316.225 548.611,316.593C548.259,316.753 547.739,316.873 547.051,316.953L547.039,317.025C547.911,317.081 548.543,317.311 548.935,317.715C549.327,318.119 549.563,318.773 549.643,319.677C549.707,320.397 549.807,320.847 549.943,321.027C550.079,321.207 550.219,321.297 550.363,321.297C550.483,321.297 550.543,321.265 550.543,321.201C550.543,321.169 550.497,321.125 550.405,321.069C550.313,321.013 550.267,320.933 550.267,320.829C550.267,320.613 550.387,320.505 550.627,320.505C550.867,320.505 550.987,320.641 550.987,320.913ZM547.951,314.853C547.951,313.821 547.543,313.305 546.727,313.305C546.463,313.305 546.299,313.393 546.235,313.569C546.195,313.681 546.175,314.117 546.175,314.877L546.175,316.869C546.799,316.877 547.251,316.721 547.531,316.401C547.811,316.081 547.951,315.565 547.951,314.853Z" style="fill:white;fill-rule:nonzero;"/>
            <path d="M559.015,317.241C559.015,318.441 558.641,319.455 557.893,320.283C557.145,321.111 556.227,321.525 555.139,321.525C554.075,321.525 553.163,321.105 552.403,320.265C551.643,319.425 551.263,318.413 551.263,317.229C551.263,316.013 551.641,314.997 552.397,314.181C553.153,313.365 554.091,312.957 555.211,312.957C556.291,312.957 557.195,313.367 557.923,314.187C558.651,315.007 559.015,316.025 559.015,317.241ZM556.903,317.433C556.903,315.841 556.715,314.665 556.339,313.905C556.091,313.409 555.699,313.161 555.163,313.161C554.619,313.161 554.185,313.509 553.861,314.205C553.537,314.901 553.375,315.833 553.375,317.001C553.375,318.697 553.663,319.965 554.239,320.805C554.479,321.157 554.827,321.333 555.283,321.333C555.811,321.333 556.183,321.081 556.399,320.577C556.735,319.793 556.903,318.745 556.903,317.433Z" style="fill:white;fill-rule:nonzero;"/>
        </g>
    </g>
</svg>
