<?xml version="1.0" encoding="UTF-8" standalone="no"?><!DOCTYPE svg PUBLIC "-//W3C//DTD SVG 1.1//EN" "http://www.w3.org/Graphics/SVG/1.1/DTD/svg11.dtd"><svg width="100%" height="100%" viewBox="0 0 50 42" version="1.1" xmlns="http://www.w3.org/2000/svg" xmlns:xlink="http://www.w3.org/1999/xlink" xml:space="preserve" xmlns:serif="http://www.serif.com/" style="fill-rule:evenodd;clip-rule:evenodd;stroke-linejoin:round;stroke-miterlimit:1.41421;"><path d="M37.15,20.53c0,5.751 -1.793,10.61 -5.377,14.578c-3.585,3.968 -7.984,5.952 -13.198,5.952c-5.099,0 -9.47,-2.013 -13.112,-6.038c-3.642,-4.026 -5.463,-8.875 -5.463,-14.549c0,-5.828 1.811,-10.697 5.434,-14.607c3.623,-3.911 8.119,-5.866 13.486,-5.866c5.176,0 9.508,1.965 12.997,5.894c3.488,3.93 5.233,8.809 5.233,14.636Zm-10.122,0.92c0,-7.629 -0.901,-13.265 -2.702,-16.907c-1.189,-2.377 -3.067,-3.565 -5.636,-3.565c-2.607,0 -4.687,1.667 -6.24,5.003c-1.552,3.335 -2.329,7.802 -2.329,13.399c0,8.128 1.38,14.204 4.141,18.23c1.15,1.687 2.818,2.53 5.003,2.53c2.53,0 4.313,-1.208 5.348,-3.623c1.61,-3.757 2.415,-8.779 2.415,-15.067Z" style="fill:#fff;fill-rule:nonzero;"/><path d="M49.301,20.53c0,5.751 -1.792,10.61 -5.376,14.578c-3.585,3.968 -7.984,5.952 -13.198,5.952c-5.099,0 -9.47,-2.013 -13.112,-6.038c-3.642,-4.026 -5.463,-8.875 -5.463,-14.549c0,-5.828 1.811,-10.697 5.434,-14.607c3.623,-3.911 8.118,-5.866 13.486,-5.866c5.175,0 9.508,1.965 12.996,5.894c3.489,3.93 5.233,8.809 5.233,14.636Zm-10.121,0.92c0,-7.629 -0.901,-13.265 -2.703,-16.907c-1.188,-2.377 -3.067,-3.565 -5.635,-3.565c-2.607,0 -4.687,1.667 -6.24,5.003c-1.553,3.335 -2.329,7.802 -2.329,13.399c0,8.128 1.38,14.204 4.141,18.23c1.15,1.687 2.817,2.53 5.003,2.53c2.53,0 4.313,-1.208 5.348,-3.623c1.61,-3.757 2.415,-8.779 2.415,-15.067Z" style="fill:#fff;fill-rule:nonzero;"/></svg>