<?xml version="1.0" standalone="no"?>
<!DOCTYPE svg PUBLIC "-//W3C//DTD SVG 20010904//EN"
 "http://www.w3.org/TR/2001/REC-SVG-20010904/DTD/svg10.dtd">
<svg version="1.0" xmlns="http://www.w3.org/2000/svg"
 width="512.000000pt" height="512.000000pt" viewBox="0 0 512.000000 512.000000"
 preserveAspectRatio="xMidYMid meet">
<metadata>
Created by potrace 1.11, written by Peter Selinger 2001-2013
</metadata>
<g transform="translate(0.000000,512.000000) scale(0.100000,-0.100000)"
fill="#000000" stroke="none">
<path d="M1946 4601 c-3 -5 -47 -9 -98 -10 -115 -3 -118 -3 -118 -10 0 -4 -26
-7 -57 -9 -31 -1 -60 -6 -63 -11 -3 -5 -21 -11 -40 -14 -68 -10 -105 -19 -115
-27 -5 -4 -21 -10 -35 -12 -14 -1 -28 -7 -31 -11 -3 -4 -16 -9 -27 -10 -12 -1
-22 -5 -22 -10 0 -4 -4 -5 -10 -2 -5 3 -10 2 -10 -4 0 -6 -7 -8 -15 -5 -8 4
-15 1 -15 -5 0 -6 -5 -11 -10 -11 -13 0 -103 -42 -110 -51 -3 -3 -15 -9 -28
-13 -12 -4 -20 -11 -17 -15 2 -5 -5 -8 -18 -7 -13 1 -21 -4 -20 -11 2 -7 -3
-13 -10 -13 -7 0 -31 -13 -54 -30 -22 -16 -44 -26 -48 -22 -5 4 -5 2 -1 -5 3
-7 -2 -14 -14 -18 -11 -4 -17 -11 -14 -17 4 -6 2 -8 -3 -5 -6 4 -27 -9 -47
-28 -21 -19 -40 -35 -43 -35 -2 0 -25 -20 -49 -45 -24 -25 -44 -42 -44 -38 0
4 -10 -7 -21 -24 -12 -18 -25 -33 -30 -33 -5 0 -9 -6 -9 -13 0 -8 -11 -20 -25
-27 -14 -7 -23 -16 -20 -18 2 -3 -5 -14 -18 -24 -12 -11 -22 -24 -22 -29 0 -5
-4 -13 -10 -17 -17 -12 -75 -90 -75 -101 0 -6 -4 -11 -8 -11 -5 0 -16 -16 -25
-35 -9 -19 -22 -35 -27 -35 -6 0 -9 -4 -5 -9 3 -5 0 -15 -7 -23 -21 -21 -78
-134 -78 -152 0 -9 -4 -16 -10 -16 -5 0 -10 -9 -10 -20 0 -11 -5 -20 -12 -20
-6 0 -8 -3 -5 -6 3 -4 1 -16 -5 -28 -7 -11 -13 -30 -15 -41 -2 -10 -9 -23 -16
-27 -6 -4 -9 -8 -5 -8 4 0 1 -17 -8 -39 -8 -21 -14 -42 -13 -47 3 -19 -1 -35
-9 -30 -5 3 -9 -8 -10 -24 0 -17 -7 -44 -16 -60 -8 -17 -11 -30 -7 -30 5 0 3
-18 -2 -39 -6 -22 -15 -37 -20 -34 -5 3 -4 -4 2 -15 7 -14 8 -23 1 -27 -7 -4
-7 -13 0 -26 9 -15 7 -21 -5 -25 -11 -5 -13 -10 -5 -19 8 -10 8 -15 0 -20 -6
-4 -9 -13 -6 -21 3 -7 1 -16 -3 -18 -5 -3 -7 -18 -5 -33 1 -15 -3 -34 -9 -42
-8 -10 -9 -13 -1 -8 7 4 14 0 18 -8 3 -8 1 -17 -5 -21 -6 -3 -8 -12 -5 -20 3
-8 1 -14 -5 -14 -6 0 -7 -6 -3 -12 10 -16 13 -48 4 -43 -4 2 -7 -9 -7 -25 0
-16 3 -27 7 -25 4 2 7 -2 7 -10 0 -8 -4 -12 -9 -9 -10 7 -10 1 2 -31 6 -15 6
-24 1 -20 -11 6 -8 -35 4 -54 5 -9 4 -12 -2 -8 -5 3 -10 0 -10 -8 0 -8 4 -12
8 -10 4 3 5 -13 3 -35 -2 -23 0 -39 4 -36 5 3 6 -15 2 -40 -4 -24 -3 -47 2
-50 5 -3 7 -13 4 -21 -4 -11 -2 -13 9 -9 12 4 13 2 2 -15 -8 -13 -9 -22 -2
-27 6 -4 10 -20 11 -37 1 -42 7 -69 19 -77 6 -5 5 -8 -4 -8 -11 0 -11 -3 -1
-15 7 -8 10 -21 7 -30 -4 -8 -2 -17 4 -21 6 -3 8 -12 5 -19 -3 -8 -1 -15 4
-17 5 -2 11 -16 14 -33 2 -16 5 -31 6 -32 2 -2 3 -6 4 -10 1 -5 5 -14 9 -20 5
-7 5 -13 0 -13 -4 0 -1 -5 7 -10 13 -9 13 -10 0 -10 -12 -1 -11 -3 3 -11 9 -6
15 -14 12 -19 -3 -5 -1 -11 5 -15 6 -4 8 -11 5 -16 -4 -5 -1 -9 5 -9 6 0 10
-6 9 -12 -2 -20 12 -58 22 -58 5 0 8 -3 8 -7 -3 -21 2 -33 13 -27 7 4 8 3 4
-5 -4 -6 -2 -19 6 -28 11 -14 11 -16 -2 -9 -8 4 -6 0 4 -8 11 -9 16 -16 11
-16 -4 0 -1 -8 8 -18 10 -10 14 -22 10 -25 -3 -4 -2 -7 4 -7 5 0 18 -18 28
-40 10 -22 23 -40 28 -40 6 0 8 -3 4 -6 -3 -3 14 -35 39 -69 24 -35 44 -69 44
-75 0 -6 5 -8 10 -5 6 3 10 0 10 -9 0 -8 3 -16 8 -18 4 -1 25 -25 47 -53 22
-27 68 -78 101 -112 34 -34 59 -65 56 -68 -3 -3 -1 -5 5 -5 6 0 37 -25 69 -56
33 -30 71 -63 87 -72 15 -9 27 -20 27 -25 0 -4 4 -5 10 -2 5 3 10 1 10 -5 0
-6 4 -9 9 -6 5 3 11 0 14 -8 3 -7 31 -28 61 -46 31 -17 56 -36 56 -41 0 -6 5
-7 10 -4 6 3 17 -1 26 -9 9 -9 20 -14 25 -10 5 3 12 -2 15 -11 4 -9 12 -14 20
-11 7 3 18 -2 24 -9 7 -8 16 -12 21 -9 5 3 12 -1 15 -10 3 -8 12 -12 20 -9 8
3 14 0 14 -6 0 -6 7 -8 15 -5 8 4 15 1 15 -6 0 -6 4 -8 10 -5 5 3 10 2 10 -3
0 -5 7 -9 15 -10 8 -1 22 -3 30 -4 8 -1 15 -5 15 -9 0 -5 7 -6 15 -3 8 4 15 1
15 -4 0 -6 9 -9 20 -7 11 2 22 -1 25 -6 4 -5 11 -7 16 -4 5 4 9 2 9 -4 0 -6 7
-8 15 -5 8 4 15 1 15 -5 0 -9 5 -9 20 -1 15 8 20 8 20 -1 0 -6 7 -9 15 -6 8 4
17 2 20 -2 7 -12 55 -20 55 -9 0 5 9 4 20 -2 11 -6 20 -8 20 -5 0 3 10 1 21
-6 12 -6 19 -7 16 -2 -4 5 0 10 8 10 8 0 12 -4 9 -8 -3 -5 69 -7 158 -6 138 2
162 4 160 17 -3 11 1 11 16 -3 19 -18 37 -23 28 -9 -3 5 19 9 47 11 85 4 87 5
87 21 0 12 2 13 9 1 6 -8 14 -10 22 -5 8 5 22 7 32 6 9 -2 17 1 17 5 0 8 23
13 68 16 6 0 12 4 12 9 0 4 10 8 23 8 12 0 35 7 51 15 26 14 30 14 42 -2 7
-10 14 -14 14 -9 0 4 12 1 26 -9 15 -9 23 -12 20 -6 -4 6 -2 11 3 11 6 0 11
-5 11 -11 0 -5 4 -8 9 -4 5 3 13 0 17 -6 4 -8 9 -7 15 2 6 9 9 10 9 2 0 -11
72 -29 98 -24 6 1 12 -3 12 -9 0 -6 5 -8 10 -5 6 3 10 1 10 -6 0 -8 3 -9 13 0
8 6 16 9 18 7 3 -3 16 -7 29 -10 14 -3 35 -7 48 -10 16 -3 20 -1 15 7 -4 8 -1
7 10 -1 12 -11 58 -13 196 -11 107 2 177 7 174 12 -3 5 0 7 8 5 8 -3 22 -1 33
4 13 7 16 7 12 -1 -5 -8 0 -8 18 -1 18 6 26 6 26 -1 0 -6 5 -7 10 -4 6 4 8 10
5 15 -3 5 6 7 20 4 14 -2 25 0 25 4 0 5 11 7 23 5 14 -3 31 2 40 11 10 10 18
12 22 6 4 -6 17 -4 35 5 16 8 38 15 49 15 11 0 23 5 26 10 4 6 11 8 16 5 5 -4
9 -1 9 6 0 7 3 9 7 6 3 -4 13 -1 21 6 12 9 14 9 8 0 -7 -14 54 16 65 30 3 5 8
8 10 6 9 -5 49 13 49 22 0 6 5 7 10 4 6 -3 10 -1 10 6 0 7 3 9 7 6 3 -4 15 0
25 10 10 9 21 14 24 10 3 -3 17 4 31 16 13 12 27 20 30 19 3 -2 9 0 12 5 11
15 75 56 87 56 7 0 11 4 9 8 -3 4 7 15 21 24 24 16 69 53 99 82 7 7 15 10 18
7 3 -3 8 4 12 15 3 11 15 23 26 26 10 4 18 9 16 13 -4 9 61 71 68 64 3 -3 5
-1 5 5 0 5 9 21 21 34 69 80 97 115 97 122 1 5 12 19 27 33 14 13 23 24 20 24
-3 0 3 10 15 22 11 12 20 28 20 35 0 7 5 13 10 13 6 0 10 7 10 15 0 7 8 19 18
24 9 6 13 11 9 11 -5 0 0 12 11 28 18 26 30 52 29 62 -1 3 8 15 18 28 11 12
21 27 21 32 1 6 3 12 4 15 1 3 3 10 4 15 0 6 8 15 16 20 8 5 12 10 7 10 -4 0
0 14 8 30 9 17 13 35 10 39 -3 5 -1 11 5 13 6 2 12 14 15 27 2 13 11 34 20 47
9 14 11 24 5 24 -6 0 -3 11 6 25 9 14 13 25 9 25 -4 0 0 12 10 26 9 15 12 23
6 20 -6 -4 -11 -3 -11 3 0 5 4 11 10 13 5 2 10 20 12 40 1 20 5 35 9 32 4 -2
10 0 14 6 3 5 1 10 -5 10 -6 0 -9 4 -6 9 3 5 8 24 11 42 6 49 13 78 20 89 3 6
1 10 -6 10 -10 0 -10 3 -2 11 6 6 9 18 6 27 -5 11 -2 13 6 7 10 -6 11 -3 2 14
-7 11 -8 21 -2 21 5 0 8 18 7 40 0 22 1 40 4 40 3 0 4 49 4 110 -2 80 1 108
10 103 6 -3 3 2 -6 13 -17 19 -17 21 0 38 9 11 12 16 6 13 -7 -4 -14 3 -16 18
-3 14 -2 25 1 25 4 0 6 12 5 28 -1 15 -3 27 -4 27 -1 0 -12 125 -13 158 -1 15
-4 27 -8 27 -3 0 -5 11 -4 25 2 14 0 25 -5 25 -4 0 -7 18 -6 40 1 22 -2 40 -6
40 -4 0 -8 14 -8 30 0 17 -4 30 -8 30 -5 0 -8 10 -7 23 1 12 -5 30 -13 40 -8
9 -11 17 -5 17 5 0 10 7 10 15 0 8 -4 15 -8 15 -5 0 -14 22 -18 45 0 3 -7 20
-15 39 -8 19 -12 37 -8 40 3 3 0 6 -7 6 -7 0 -10 4 -6 9 3 5 0 13 -6 16 -5 4
-8 13 -5 20 3 8 0 15 -5 17 -6 2 -12 15 -12 30 -1 14 -4 26 -7 25 -3 -1 -5 1
-5 4 0 4 -8 15 -17 25 -16 19 -18 23 -18 45 0 5 -4 8 -9 4 -6 -3 -8 4 -6 15 2
11 0 18 -4 15 -5 -3 -12 6 -15 20 -4 14 -11 25 -17 25 -6 0 -8 4 -4 9 3 5 -1
15 -8 23 -7 7 -15 18 -17 23 -10 27 -64 105 -73 105 -5 0 -6 7 -3 16 3 8 2 12
-4 9 -6 -3 -10 -2 -10 4 0 6 -11 21 -25 35 -14 14 -25 30 -25 36 0 5 -4 10
-10 10 -5 0 -10 5 -10 11 0 15 -225 239 -271 270 -22 14 -36 29 -32 34 5 4 3
5 -3 2 -6 -3 -21 4 -35 16 -26 24 -108 75 -122 75 -5 0 -14 8 -21 18 -7 9 -18
14 -23 11 -6 -4 -13 0 -17 8 -3 8 -15 15 -26 15 -11 0 -20 5 -20 10 0 6 -5 10
-10 10 -6 0 -30 9 -52 20 -23 11 -50 20 -60 20 -11 0 -17 4 -14 8 4 7 -10 11
-51 14 -7 1 -13 5 -13 9 0 4 -8 8 -17 8 -39 1 -53 5 -53 13 0 4 -13 8 -29 8
-16 0 -32 6 -34 13 -4 9 -6 8 -6 -2 -1 -11 -4 -11 -16 -1 -8 7 -21 10 -30 7
-8 -4 -16 -3 -19 2 -3 4 -19 6 -35 5 -17 -1 -31 2 -31 7 0 5 -27 9 -59 9 -33
0 -63 4 -66 10 -4 6 -13 5 -25 -2 -14 -9 -22 -9 -36 3 -11 9 -15 9 -10 2 4 -7
3 -13 -1 -13 -5 0 -15 6 -22 13 -8 6 -11 7 -8 1 4 -7 -5 -11 -23 -12 -17 0
-30 4 -30 9 0 5 -5 9 -11 9 -5 0 -8 -4 -5 -9 3 -5 -10 -9 -29 -9 -24 0 -33 4
-28 12 4 6 -1 5 -10 -3 -11 -8 -33 -11 -62 -8 -25 2 -48 0 -51 -5 -3 -5 -14
-6 -24 -3 -10 3 -21 2 -24 -3 -2 -4 -24 -9 -48 -11 -23 -1 -46 -7 -50 -14 -6
-9 -8 -8 -8 2 0 12 -3 12 -12 3 -7 -7 -26 -12 -44 -12 -18 0 -34 -4 -36 -9 -1
-5 -16 -11 -33 -14 -16 -2 -37 -6 -45 -10 -36 -13 -72 -14 -77 -1 -3 8 -15 13
-26 12 -27 -1 -50 5 -57 14 -3 4 -22 8 -43 10 -20 1 -37 6 -37 10 0 7 -20 8
-97 8 -13 0 -23 4 -23 8 0 5 -26 10 -57 11 -32 1 -63 7 -69 12 -8 7 -14 6 -19
-1 -3 -5 -13 -10 -21 -10 -8 0 -12 5 -9 11 4 6 -2 5 -13 -2 -17 -11 -24 -10
-38 2 -10 8 -15 9 -11 3 5 -8 -5 -12 -29 -12 -25 0 -33 3 -23 9 9 6 10 9 2 9
-6 0 -14 -4 -17 -9z m-62 -103 c-6 -10 -4 -10 7 -2 8 7 49 10 104 8 108 -4
115 -5 115 -15 0 -5 6 -6 13 -3 8 3 27 -1 43 -7 16 -7 35 -11 42 -10 6 1 12
-3 12 -9 0 -6 4 -9 9 -5 5 3 15 0 23 -7 7 -7 25 -19 41 -27 15 -8 26 -19 24
-24 -1 -4 -6 -7 -10 -5 -5 2 -13 -5 -18 -15 -6 -9 -14 -15 -20 -12 -5 4 -9 1
-9 -4 0 -6 -7 -11 -15 -11 -8 0 -15 -4 -15 -10 0 -5 -6 -10 -14 -10 -7 0 -19
-7 -26 -15 -7 -8 -16 -12 -21 -9 -5 3 -8 1 -7 -4 2 -6 0 -9 -4 -8 -4 0 -14 -8
-22 -19 -9 -11 -16 -16 -16 -11 0 6 -6 3 -12 -6 -7 -8 -41 -38 -76 -67 -35
-28 -60 -51 -56 -51 4 0 -6 -10 -22 -22 -31 -24 -44 -36 -115 -116 -26 -28
-50 -48 -53 -44 -4 3 -5 0 -2 -8 4 -9 -9 -30 -29 -52 -19 -20 -35 -39 -35 -42
0 -3 -20 -34 -45 -69 -25 -36 -45 -69 -45 -75 0 -6 -5 -12 -11 -14 -5 -2 -11
-12 -13 -21 -1 -10 -8 -22 -15 -27 -8 -4 -10 -13 -7 -19 4 -6 4 -11 -1 -11 -9
0 -39 -61 -35 -73 1 -5 -2 -6 -8 -2 -5 3 -11 -1 -11 -9 -2 -25 -4 -30 -14 -46
-5 -8 -10 -21 -12 -29 -1 -8 -6 -17 -11 -20 -5 -3 -8 -14 -6 -23 1 -10 -1 -18
-5 -18 -4 0 -8 -6 -9 -12 -6 -45 -10 -58 -21 -72 -8 -9 -11 -16 -8 -16 3 0 -1
-16 -9 -35 -8 -20 -12 -40 -9 -45 3 -5 1 -11 -4 -15 -6 -3 -8 -12 -4 -20 3 -8
1 -15 -4 -15 -6 0 -9 -12 -9 -27 1 -16 -2 -33 -6 -39 -4 -5 -9 -27 -12 -47 -2
-20 -7 -41 -11 -47 -4 -6 -1 -17 5 -25 10 -12 9 -16 -5 -21 -13 -5 -14 -9 -3
-15 10 -7 10 -9 -2 -9 -13 0 -13 -1 0 -10 11 -7 11 -10 2 -10 -7 0 -10 -4 -7
-10 3 -5 3 -10 -2 -10 -9 0 -10 -77 0 -86 3 -4 2 -15 -4 -25 -5 -11 -7 -19 -3
-19 3 0 0 -8 -7 -17 -12 -14 -12 -16 0 -8 11 6 13 3 9 -13 -4 -13 -1 -22 5
-22 8 0 9 -3 1 -8 -14 -9 -14 -95 0 -104 8 -6 8 -8 0 -8 -12 0 -14 -54 -3 -65
4 -3 3 -22 -1 -41 -5 -19 -4 -37 1 -40 5 -3 6 -11 2 -17 -10 -17 -10 -40 1
-55 8 -12 17 -77 16 -129 0 -13 6 -23 13 -23 9 0 9 -2 -1 -9 -11 -7 -11 -10 0
-22 7 -8 13 -29 12 -46 -1 -18 3 -33 8 -33 5 0 8 -6 7 -12 -4 -22 13 -88 22
-88 4 0 6 -9 4 -20 -2 -11 1 -20 7 -20 5 0 8 -6 5 -14 -3 -8 -3 -17 1 -21 7
-6 8 -10 11 -36 0 -5 5 -8 10 -5 5 4 8 -2 7 -11 -2 -10 3 -26 10 -37 7 -10 10
-25 7 -32 -3 -8 0 -14 7 -14 6 0 8 -4 5 -10 -3 -5 -1 -10 4 -10 6 0 11 -9 11
-19 0 -11 5 -23 10 -26 6 -4 8 -11 5 -16 -4 -5 0 -9 7 -9 8 0 14 -10 15 -21 1
-12 9 -29 17 -38 8 -9 22 -35 31 -58 10 -24 21 -43 25 -43 4 0 13 -13 20 -30
7 -16 17 -30 23 -30 6 0 8 -3 4 -6 -3 -4 -1 -12 6 -19 7 -7 19 -23 27 -35 8
-13 27 -38 42 -55 15 -18 25 -35 21 -39 -3 -3 1 -6 10 -6 10 0 17 -5 17 -10 0
-14 40 -59 152 -171 53 -53 99 -94 102 -91 3 3 6 0 6 -6 0 -6 9 -14 20 -17 11
-4 18 -11 15 -16 -4 -5 -1 -9 6 -9 6 0 20 -9 30 -21 9 -11 20 -20 23 -20 3 0
26 -14 52 -32 25 -17 67 -43 93 -57 43 -23 46 -27 32 -41 -22 -22 -77 -50 -85
-42 -3 4 -6 1 -6 -5 0 -7 -12 -12 -26 -12 -14 0 -23 -4 -20 -9 3 -5 -12 -8
-35 -8 -25 1 -44 -4 -50 -14 -7 -11 -9 -11 -9 0 0 9 -4 10 -12 4 -7 -6 -35 -9
-63 -7 -73 5 -150 12 -152 14 -2 2 -6 3 -10 5 -5 1 -16 5 -25 9 -9 4 -22 8
-30 10 -23 3 -78 31 -78 38 0 4 -7 5 -15 2 -10 -4 -15 0 -15 11 0 9 -4 14 -9
11 -5 -3 -11 1 -15 9 -3 8 -10 15 -16 15 -7 0 -28 18 -48 40 -55 59 -61 67
-55 74 4 3 -1 6 -11 6 -9 0 -14 5 -11 10 3 6 2 10 -3 10 -5 0 -21 25 -37 55
-15 31 -32 58 -37 61 -5 3 -7 12 -4 20 3 7 0 17 -7 21 -7 5 -23 25 -35 46 -12
21 -17 35 -11 32 13 -8 -12 37 -26 47 -5 4 -6 8 -1 8 5 0 3 7 -4 15 -7 8 -9
15 -6 15 4 0 1 10 -6 23 -7 12 -11 25 -10 30 1 4 -3 7 -8 7 -6 0 -10 6 -8 13
1 6 -4 23 -11 36 -11 19 -11 22 1 15 10 -6 9 -3 -2 10 -8 10 -15 25 -16 33 -1
8 -6 22 -10 31 -3 9 -8 30 -10 46 -2 16 -9 35 -15 43 -6 7 -9 13 -5 13 4 0 0
12 -7 27 -7 16 -12 36 -9 46 2 10 -2 24 -8 32 -6 8 -9 19 -5 25 3 5 3 10 -2
10 -4 0 -9 14 -10 30 -5 78 -7 90 -14 90 -4 0 -6 10 -4 22 3 12 0 27 -6 35 -9
10 -8 13 2 13 9 0 10 3 3 8 -6 4 -10 17 -9 30 1 12 -1 22 -4 22 -3 0 -7 26 -8
58 -2 31 -7 58 -13 60 -6 2 -6 10 0 21 5 10 7 21 3 24 -3 4 -7 38 -8 76 -1 38
-5 74 -9 80 -4 6 -1 11 6 11 8 0 7 4 -4 11 -14 7 -15 15 -8 34 6 16 6 27 -1
31 -6 4 -6 11 2 20 6 8 8 14 3 14 -7 0 -9 305 -4 445 0 6 -1 24 -3 40 -2 17
-1 34 2 40 7 14 9 45 1 45 -12 0 -4 62 10 70 11 7 12 10 2 10 -8 0 -10 5 -6
12 5 7 10 42 11 78 6 102 7 110 13 110 4 0 6 23 6 50 -1 28 2 50 7 50 5 0 5 9
2 20 -3 11 -2 20 3 20 6 0 9 8 7 18 -1 9 2 27 6 40 6 15 5 22 -4 22 -8 0 -7 4
3 10 8 5 12 10 8 10 -4 0 -1 15 7 32 10 24 10 38 2 53 -9 18 -9 19 7 6 14 -12
16 -12 10 2 -3 8 -1 24 5 35 7 13 7 23 -2 32 -8 8 -8 11 -1 7 8 -4 16 10 23
38 6 25 17 45 24 45 9 0 9 2 -1 8 -14 9 -6 42 10 42 5 0 9 8 8 18 -3 24 10 62
21 62 5 0 8 3 7 8 -5 12 44 122 54 122 5 0 6 5 3 10 -3 6 1 17 9 26 9 9 14 20
11 25 -4 5 1 9 9 9 8 0 13 6 11 13 -3 6 6 25 20 41 13 16 27 37 30 47 4 11 11
19 16 19 5 0 9 7 9 16 0 8 5 12 10 9 6 -3 10 -2 10 4 0 5 19 29 43 53 62 62
118 103 177 128 14 6 35 15 47 22 12 6 28 8 37 5 8 -3 20 1 26 9 15 17 24 19
14 2z m1325 -2 c12 -8 13 -8 7 2 -6 9 -3 12 10 10 11 -2 22 -7 25 -11 3 -5 20
-9 38 -9 17 -1 34 -5 37 -10 3 -4 12 -8 19 -8 23 0 125 -50 125 -60 0 -6 4 -9
9 -8 10 3 141 -127 141 -140 0 -5 9 -19 20 -32 11 -12 17 -27 14 -31 -3 -5 0
-9 6 -9 6 0 16 -13 21 -30 6 -16 16 -30 21 -30 6 0 5 -6 -2 -15 -10 -12 -9
-15 5 -15 12 0 16 -6 12 -20 -3 -11 -1 -20 3 -20 7 0 19 -24 26 -52 1 -5 2 -9
4 -10 1 -2 3 -10 5 -18 8 -31 36 -106 46 -124 8 -14 8 -21 -2 -27 -11 -6 -10
-9 3 -14 9 -4 14 -13 11 -21 -3 -8 -1 -14 5 -14 6 0 8 -8 5 -18 -2 -10 1 -31
8 -47 6 -17 13 -41 14 -55 2 -14 9 -54 15 -90 7 -36 12 -73 12 -82 0 -10 3
-20 7 -23 5 -2 7 -19 5 -36 -2 -18 0 -37 5 -43 8 -11 10 -34 14 -138 1 -27 5
-48 9 -48 4 0 5 -7 1 -16 -3 -9 0 -20 8 -25 8 -5 9 -9 3 -9 -6 0 -10 -10 -8
-22 1 -13 3 -23 4 -23 1 0 3 -41 4 -92 1 -50 4 -95 8 -99 4 -3 3 -16 -3 -27
-8 -14 -8 -18 0 -13 6 4 11 2 11 -3 0 -6 -6 -11 -12 -11 -8 0 -9 -3 -3 -8 6
-4 10 -19 10 -34 -1 -16 3 -28 7 -28 5 0 3 -10 -3 -22 -15 -27 -14 -28 1 -38
8 -5 9 -13 4 -21 -11 -19 -13 -49 -2 -49 5 0 4 -9 -2 -20 -8 -14 -8 -20 0 -20
6 0 8 -5 4 -12 -10 -16 -11 -68 -1 -68 5 0 5 -5 1 -12 -11 -17 -11 -58 -1 -58
4 0 3 -8 -2 -17 -14 -27 -14 -35 -1 -43 8 -5 9 -13 4 -21 -12 -19 -12 -49 -1
-49 6 0 6 -5 0 -12 -5 -7 -9 -20 -8 -28 0 -8 -4 -18 -10 -22 -6 -5 -1 -8 10
-9 l20 0 -20 -9 c-11 -5 -14 -9 -7 -9 7 -1 10 -6 7 -12 -4 -6 -8 -50 -9 -98
-2 -48 -6 -93 -10 -99 -4 -7 -2 -12 6 -12 8 0 9 -3 3 -8 -6 -4 -10 -17 -9 -29
1 -13 -1 -23 -5 -23 -3 0 -7 -19 -7 -42 -3 -83 -8 -138 -14 -138 -4 0 -6 -15
-5 -32 1 -18 -5 -44 -13 -57 -8 -13 -9 -20 -3 -17 6 4 11 2 11 -3 0 -6 -4 -11
-9 -11 -5 0 -8 -18 -7 -40 2 -22 -1 -37 -5 -34 -5 3 -6 -2 -3 -10 3 -9 2 -16
-3 -16 -5 0 -10 -13 -11 -30 -3 -49 -5 -60 -12 -60 -3 0 -6 -12 -5 -27 0 -16
-6 -34 -15 -41 -8 -8 -9 -11 -2 -7 6 3 12 1 12 -4 0 -6 -4 -11 -10 -11 -5 0
-10 -14 -10 -31 0 -17 -4 -28 -10 -24 -6 3 -7 -1 -4 -9 3 -9 1 -16 -5 -16 -6
0 -8 -7 -5 -15 4 -8 1 -22 -6 -30 -7 -8 -10 -21 -7 -29 3 -8 -1 -20 -9 -26 -8
-7 -14 -23 -14 -36 0 -13 -4 -24 -10 -24 -5 0 -10 -8 -10 -18 0 -10 -7 -28
-16 -40 -8 -12 -12 -22 -9 -22 4 0 -3 -13 -14 -29 -11 -15 -18 -31 -15 -34 3
-3 -4 -10 -15 -17 -12 -6 -19 -15 -16 -21 4 -5 1 -9 -4 -9 -6 0 -11 -5 -11
-11 0 -15 -96 -106 -120 -114 -11 -4 -17 -11 -14 -17 4 -6 2 -8 -4 -4 -6 3
-13 2 -17 -4 -4 -6 -10 -8 -15 -5 -4 3 -13 -2 -20 -9 -6 -8 -20 -13 -31 -11
-12 3 -19 -2 -19 -12 0 -9 -3 -13 -7 -10 -3 4 -12 2 -19 -4 -8 -7 -14 -7 -19
1 -3 6 -12 7 -18 3 -27 -17 -167 -23 -186 -8 -11 8 -13 7 -7 -3 7 -11 4 -12
-10 -4 -11 5 -25 7 -33 4 -8 -2 -11 0 -8 5 3 5 -9 8 -26 8 -18 -1 -35 3 -39 8
-3 6 -18 11 -34 13 -15 2 -30 8 -34 14 -4 7 -11 12 -16 12 -21 1 -54 18 -54
28 0 6 -4 8 -10 5 -5 -3 -10 -2 -10 3 0 5 -10 14 -22 20 -13 6 -17 11 -10 11
7 1 11 5 8 10 -3 5 9 15 26 22 18 7 40 20 50 29 10 8 27 23 38 32 11 10 22 18
25 18 5 0 28 18 93 75 25 22 49 39 54 38 4 -2 8 2 8 7 0 6 30 40 66 75 36 36
63 65 60 65 -3 0 10 15 30 34 23 22 33 39 29 47 -5 8 -4 10 4 5 6 -4 14 0 18
10 3 10 14 25 22 34 9 9 23 27 31 40 8 12 20 28 25 34 6 6 17 25 25 41 8 17
18 32 22 35 13 10 118 220 110 220 -4 0 0 6 8 13 17 13 23 31 24 65 1 12 7 22
14 22 6 0 11 3 10 8 -3 11 25 102 32 102 3 0 6 10 7 23 1 30 10 62 22 85 7 13
7 22 -1 30 -9 9 -9 12 0 12 7 0 12 9 12 20 0 11 4 20 8 20 4 0 7 18 5 40 -1
27 2 38 9 34 6 -4 8 -3 5 3 -4 6 -2 24 3 42 5 19 5 31 -1 31 -6 0 -6 7 1 19 5
11 7 27 4 35 -4 10 -1 16 7 16 11 0 11 3 -1 10 -9 6 -10 10 -3 10 6 0 11 16
11 38 0 20 1 39 2 42 5 15 5 60 -1 60 -4 0 -3 16 1 35 5 21 4 35 -2 35 -5 0
-6 5 -2 12 10 16 11 68 1 68 -5 0 -5 5 -1 12 10 16 11 138 1 138 -5 0 -7 8 -6
18 4 40 -1 63 -13 56 -7 -5 -8 -3 -2 7 11 18 12 50 3 70 -5 9 -3 21 3 27 8 8
7 13 -4 17 -10 4 -14 14 -11 26 3 10 1 19 -4 19 -6 0 -8 11 -5 25 2 14 -3 36
-13 52 -17 25 -17 26 1 19 15 -6 17 -5 7 5 -7 7 -13 23 -13 36 0 13 -4 23 -9
23 -6 0 -10 8 -10 18 0 20 -4 37 -18 72 -8 18 -7 27 1 32 8 6 8 8 -1 8 -7 0
-18 19 -25 43 -6 23 -17 45 -23 49 -5 4 -7 8 -2 8 4 0 0 11 -9 25 -9 14 -13
25 -10 25 4 0 -1 11 -10 25 -9 14 -13 25 -10 25 3 0 -5 18 -19 40 -14 23 -23
46 -19 52 4 7 3 8 -4 4 -7 -4 -14 3 -18 19 -3 14 -11 25 -17 25 -6 0 -8 3 -4
6 3 3 -10 28 -29 55 -19 28 -32 54 -29 59 4 6 -1 10 -10 10 -9 0 -13 5 -10 10
3 6 3 10 -2 10 -4 0 -21 20 -38 45 -16 24 -33 45 -37 45 -5 0 -8 6 -8 13 0 7
-9 18 -20 25 -11 7 -20 19 -20 28 0 8 -4 12 -10 9 -5 -3 -10 -1 -10 6 0 13
-144 157 -215 214 -28 22 -51 43 -53 47 -2 5 -10 8 -17 8 -7 0 -15 4 -17 8 -7
18 -99 73 -110 66 -6 -4 -8 -3 -4 4 3 5 1 12 -5 14 -6 2 -2 13 9 26 10 12 22
19 26 15 3 -3 6 -2 6 4 0 11 57 37 73 34 4 0 7 4 7 9 0 6 3 9 8 9 4 -1 9 0 12
1 3 1 19 4 35 6 17 3 34 9 38 13 12 12 150 10 166 -3z m-634 -465 c2 -9 4 -20
4 -25 0 -5 5 -13 13 -17 11 -7 10 -9 -1 -9 -11 0 -9 -4 5 -15 14 -11 15 -14 4
-15 -13 0 -13 -2 -1 -9 8 -5 16 -22 19 -38 2 -15 11 -37 20 -47 9 -11 11 -16
5 -12 -14 8 -18 -6 -6 -18 4 -3 8 -16 10 -28 2 -12 7 -25 11 -28 9 -7 9 -32
-1 -48 -5 -7 -2 -15 8 -18 9 -4 14 -13 11 -20 -3 -8 -2 -14 3 -14 5 0 9 -6 8
-12 -1 -41 4 -79 11 -75 4 3 6 -9 6 -26 -1 -18 4 -38 10 -46 8 -11 8 -13 -1
-7 -7 4 -13 3 -13 -3 0 -5 5 -13 10 -16 6 -4 8 -11 5 -16 -4 -5 -1 -9 6 -9 8
0 8 -4 -1 -15 -7 -8 -8 -15 -3 -15 5 0 9 -15 9 -32 2 -62 4 -69 15 -62 8 5 9
2 1 -12 -6 -11 -7 -27 -1 -42 6 -16 6 -29 -2 -38 -8 -10 -8 -14 -1 -14 6 0 9
-6 6 -13 -3 -8 0 -26 5 -40 8 -19 7 -27 0 -27 -8 0 -7 -5 1 -15 7 -9 10 -18 7
-22 -4 -3 -2 -12 4 -20 9 -10 8 -13 0 -13 -7 0 -9 -5 -5 -12 4 -6 8 -59 9
-118 0 -58 4 -111 9 -118 4 -7 2 -12 -6 -13 -7 0 -8 -2 -3 -5 11 -4 11 -106 1
-123 -4 -5 -2 -12 4 -16 6 -4 8 -11 5 -16 -4 -5 -1 -9 6 -9 8 0 8 -4 1 -13 -7
-8 -7 -18 -2 -27 5 -8 6 -19 2 -25 -11 -18 -11 -35 1 -35 8 0 8 -3 2 -8 -13
-9 -17 -32 -6 -32 5 0 8 -8 6 -17 -2 -10 -4 -26 -4 -36 -1 -11 -6 -15 -13 -11
-7 5 -8 3 -3 -6 5 -7 8 -39 7 -69 -1 -71 -9 -203 -12 -216 -1 -5 -1 -12 0 -15
7 -17 5 -52 -3 -57 -5 -3 -3 -9 4 -14 8 -5 9 -9 3 -9 -7 0 -10 -14 -8 -35 1
-19 -1 -35 -5 -35 -5 0 -8 -21 -7 -47 1 -27 -2 -56 -7 -67 -6 -13 -5 -21 4
-27 11 -7 11 -9 1 -9 -7 0 -10 -4 -7 -10 3 -5 2 -10 -2 -10 -5 0 -9 -23 -9
-51 1 -28 -2 -53 -7 -56 -4 -2 -5 -9 -2 -14 4 -5 2 -9 -3 -9 -5 0 -9 -16 -10
-35 -3 -54 -5 -65 -12 -65 -3 0 -6 -10 -7 -22 -2 -50 -8 -78 -16 -78 -5 0 -5
-9 -2 -20 4 -13 2 -20 -6 -20 -7 0 -9 -3 -6 -7 4 -3 1 -13 -6 -21 -9 -13 -9
-14 1 -8 6 4 12 2 12 -3 0 -6 -5 -11 -11 -11 -5 0 -8 -4 -4 -9 3 -5 1 -12 -4
-16 -5 -3 -8 -14 -6 -25 2 -11 0 -20 -6 -20 -5 0 -9 -13 -9 -30 0 -16 -4 -30
-10 -30 -5 0 -10 -9 -10 -20 0 -11 -5 -20 -10 -20 -11 0 -35 48 -32 63 1 4 -4
10 -12 13 -8 3 -12 13 -8 26 3 14 1 19 -6 14 -7 -4 -10 1 -7 14 2 11 -1 20 -7
20 -5 0 -8 7 -4 15 3 9 0 15 -8 15 -9 0 -12 7 -9 19 2 10 -1 24 -9 32 -7 8
-14 27 -15 43 -1 16 -6 32 -10 35 -5 3 -8 16 -7 29 1 13 -4 29 -11 35 -6 7
-10 18 -7 25 2 7 0 20 -4 30 -11 26 -29 111 -26 125 1 4 -1 7 -5 7 -7 0 -10
18 -13 93 -1 9 -4 15 -8 13 -4 -3 -7 20 -7 50 1 30 -3 58 -9 62 -6 4 -12 40
-13 80 0 40 -6 78 -11 85 -7 8 -7 18 -2 27 5 8 6 19 2 24 -3 6 -7 44 -9 86 -2
41 -4 90 -5 108 -1 17 -6 32 -12 32 -7 0 -7 3 -1 8 14 10 17 32 4 32 -8 0 -8
5 1 15 10 12 10 15 0 15 -10 0 -10 3 0 15 9 11 9 15 1 15 -8 0 -9 5 -1 19 5
11 7 22 2 24 -9 7 -8 269 2 285 4 7 2 12 -5 12 -10 0 -10 3 -1 12 8 8 8 17 1
31 -8 15 -8 18 1 12 9 -6 9 -2 1 14 -7 11 -8 21 -3 21 5 0 8 16 6 35 -1 19 2
35 8 35 6 0 6 6 -2 15 -7 8 -8 15 -3 15 5 0 8 28 8 63 -1 34 3 70 7 80 5 10 5
17 -1 17 -6 0 -8 7 -5 15 4 8 9 13 13 11 3 -2 6 12 5 32 0 21 3 45 8 55 5 9 5
17 0 17 -5 0 -8 10 -7 23 2 12 6 21 11 20 5 -1 10 17 11 40 2 34 8 81 12 95 1
1 0 3 -1 5 -1 1 4 13 11 26 7 13 8 21 3 17 -6 -4 -8 2 -5 14 3 11 10 20 15 20
5 0 6 5 3 10 -4 6 -1 17 5 25 10 12 10 18 0 30 -10 12 -9 15 5 15 10 0 15 5
12 14 -3 7 1 26 9 42 8 15 12 34 10 41 -3 7 -1 13 4 13 6 0 9 3 9 8 -1 4 0 10
1 15 1 4 3 10 5 15 1 4 7 21 14 37 7 17 13 38 14 48 1 9 4 17 7 17 6 0 35 71
33 81 -4 14 27 4 32 -10z"/>
</g>
</svg>
